<mxfile host="65bd71144e">
    <diagram id="R2lEEEUBdFMjLlhIrx00" name="E/R">
        <mxGraphModel dx="1336" dy="1857" grid="1" gridSize="10" guides="1" tooltips="1" connect="1" arrows="1" fold="1" page="1" pageScale="1" pageWidth="850" pageHeight="1100" math="0" shadow="0" extFonts="Permanent Marker^https://fonts.googleapis.com/css?family=Permanent+Marker">
            <root>
                <mxCell id="0"/>
                <mxCell id="1" parent="0"/>
                <mxCell id="144" style="edgeStyle=none;html=1;entryX=0.5;entryY=1;entryDx=0;entryDy=0;" edge="1" parent="1" source="2" target="5">
                    <mxGeometry relative="1" as="geometry"/>
                </mxCell>
                <mxCell id="2" value="Fixture" style="swimlane;childLayout=stackLayout;horizontal=1;startSize=30;horizontalStack=0;rounded=1;fontSize=14;fontStyle=0;strokeWidth=2;resizeParent=0;resizeLast=1;shadow=0;dashed=0;align=center;" parent="1" vertex="1">
                    <mxGeometry x="140" y="-120" width="160" height="130" as="geometry"/>
                </mxCell>
                <mxCell id="3" value="+id&#10;+name&#10;+starting_at&#10;+lenght&#10;+home_score&#10;+away_score" style="align=left;strokeColor=none;fillColor=none;spacingLeft=4;fontSize=12;verticalAlign=top;resizable=0;rotatable=0;part=1;" parent="2" vertex="1">
                    <mxGeometry y="30" width="160" height="100" as="geometry"/>
                </mxCell>
                <mxCell id="4" value="League" style="swimlane;childLayout=stackLayout;horizontal=1;startSize=30;horizontalStack=0;rounded=1;fontSize=14;fontStyle=0;strokeWidth=2;resizeParent=0;resizeLast=1;shadow=0;dashed=0;align=center;" parent="1" vertex="1">
                    <mxGeometry x="140" y="-340" width="160" height="120" as="geometry"/>
                </mxCell>
                <mxCell id="5" value="+id&#10;+name&#10;+active&#10;+short_code&#10;+image_path" style="align=left;strokeColor=none;fillColor=none;spacingLeft=4;fontSize=12;verticalAlign=top;resizable=0;rotatable=0;part=1;" parent="4" vertex="1">
                    <mxGeometry y="30" width="160" height="90" as="geometry"/>
                </mxCell>
                <mxCell id="143" style="edgeStyle=none;html=1;entryX=0.337;entryY=0.85;entryDx=0;entryDy=0;entryPerimeter=0;shape=link;exitX=0.465;exitY=-0.008;exitDx=0;exitDy=0;exitPerimeter=0;" edge="1" parent="1" source="4" target="141">
                    <mxGeometry relative="1" as="geometry"/>
                </mxCell>
                <mxCell id="6" value="Season" style="swimlane;childLayout=stackLayout;horizontal=1;startSize=30;horizontalStack=0;rounded=1;fontSize=14;fontStyle=0;strokeWidth=2;resizeParent=0;resizeLast=1;shadow=0;dashed=0;align=center;" parent="1" vertex="1">
                    <mxGeometry x="560" y="-320" width="200" height="140" as="geometry"/>
                </mxCell>
                <mxCell id="7" value="+id&#10;+name&#10;+tie_breaker_rule&#10;+state (pending, current, finished)&#10;+starting_at&#10;+ending_at" style="align=left;strokeColor=none;fillColor=none;spacingLeft=4;fontSize=12;verticalAlign=top;resizable=0;rotatable=0;part=1;" parent="6" vertex="1">
                    <mxGeometry y="30" width="200" height="110" as="geometry"/>
                </mxCell>
                <mxCell id="23" value="Stage" style="swimlane;childLayout=stackLayout;horizontal=1;startSize=30;horizontalStack=0;rounded=1;fontSize=14;fontStyle=0;strokeWidth=2;resizeParent=0;resizeLast=1;shadow=0;dashed=0;align=center;" parent="1" vertex="1">
                    <mxGeometry x="127.5" y="250" width="185" height="155" as="geometry"/>
                </mxCell>
                <mxCell id="24" value="+id&#10;+name&#10;+type&#10;+sort_order&#10;+state (pending, current,&#10;Â finished)&#10;+starting_at&#10;+ending_at&#10;" style="align=left;strokeColor=none;fillColor=none;spacingLeft=4;fontSize=12;verticalAlign=top;resizable=0;rotatable=0;part=1;" parent="23" vertex="1">
                    <mxGeometry y="30" width="185" height="125" as="geometry"/>
                </mxCell>
                <mxCell id="40" value="stagged in" style="shape=rhombus;perimeter=rhombusPerimeter;whiteSpace=wrap;html=1;align=center;" parent="1" vertex="1">
                    <mxGeometry x="160" y="120" width="120" height="60" as="geometry"/>
                </mxCell>
                <mxCell id="41" value="" style="endArrow=none;html=1;rounded=0;exitX=0.5;exitY=1;exitDx=0;exitDy=0;entryX=0.5;entryY=0;entryDx=0;entryDy=0;" parent="1" source="40" target="23" edge="1">
                    <mxGeometry relative="1" as="geometry">
                        <mxPoint x="720" y="370" as="sourcePoint"/>
                        <mxPoint x="470.0000000000002" y="330" as="targetPoint"/>
                    </mxGeometry>
                </mxCell>
                <mxCell id="42" value="1" style="resizable=0;html=1;align=right;verticalAlign=bottom;" parent="41" connectable="0" vertex="1">
                    <mxGeometry x="1" relative="1" as="geometry"/>
                </mxCell>
                <mxCell id="43" value="" style="endArrow=none;html=1;rounded=0;entryX=0.5;entryY=1;entryDx=0;entryDy=0;exitX=0.5;exitY=0;exitDx=0;exitDy=0;" parent="1" source="40" target="3" edge="1">
                    <mxGeometry relative="1" as="geometry">
                        <mxPoint x="640" y="170" as="sourcePoint"/>
                        <mxPoint x="990" y="229.9999999999999" as="targetPoint"/>
                    </mxGeometry>
                </mxCell>
                <mxCell id="44" value="N" style="resizable=0;html=1;align=right;verticalAlign=bottom;" parent="43" connectable="0" vertex="1">
                    <mxGeometry x="1" relative="1" as="geometry"/>
                </mxCell>
                <mxCell id="55" value="scheduled" style="shape=rhombus;perimeter=rhombusPerimeter;whiteSpace=wrap;html=1;align=center;" parent="1" vertex="1">
                    <mxGeometry x="360" y="-295" width="120" height="60" as="geometry"/>
                </mxCell>
                <mxCell id="56" value="" style="endArrow=none;html=1;rounded=0;entryX=1;entryY=0.5;entryDx=0;entryDy=0;exitX=0;exitY=0.5;exitDx=0;exitDy=0;" parent="1" source="55" target="5" edge="1">
                    <mxGeometry relative="1" as="geometry">
                        <mxPoint x="530" y="-360" as="sourcePoint"/>
                        <mxPoint x="690" y="-360" as="targetPoint"/>
                    </mxGeometry>
                </mxCell>
                <mxCell id="57" value="1" style="resizable=0;html=1;align=right;verticalAlign=bottom;" parent="56" connectable="0" vertex="1">
                    <mxGeometry x="1" relative="1" as="geometry"/>
                </mxCell>
                <mxCell id="58" value="" style="endArrow=none;html=1;rounded=0;entryX=0;entryY=0.25;entryDx=0;entryDy=0;exitX=1;exitY=0.5;exitDx=0;exitDy=0;" parent="1" source="55" target="7" edge="1">
                    <mxGeometry relative="1" as="geometry">
                        <mxPoint x="530" y="-360" as="sourcePoint"/>
                        <mxPoint x="690" y="-360" as="targetPoint"/>
                    </mxGeometry>
                </mxCell>
                <mxCell id="59" value="N" style="resizable=0;html=1;align=right;verticalAlign=bottom;" parent="58" connectable="0" vertex="1">
                    <mxGeometry x="1" relative="1" as="geometry"/>
                </mxCell>
                <mxCell id="65" value="Round" style="swimlane;childLayout=stackLayout;horizontal=1;startSize=30;horizontalStack=0;rounded=1;fontSize=14;fontStyle=0;strokeWidth=2;resizeParent=0;resizeLast=1;shadow=0;dashed=0;align=center;" parent="1" vertex="1">
                    <mxGeometry x="685" y="275" width="185" height="130" as="geometry"/>
                </mxCell>
                <mxCell id="66" value="+id&#10;+name&#10;+state (pending, current, finished)&#10;+starting_at&#10;+ending_at" style="align=left;strokeColor=none;fillColor=none;spacingLeft=4;fontSize=12;verticalAlign=top;resizable=0;rotatable=0;part=1;" parent="65" vertex="1">
                    <mxGeometry y="30" width="185" height="100" as="geometry"/>
                </mxCell>
                <mxCell id="67" value="" style="endArrow=none;html=1;rounded=0;dashed=1;dashPattern=1 2;entryX=1;entryY=1;entryDx=0;entryDy=0;exitX=0.5;exitY=0;exitDx=0;exitDy=0;" parent="1" source="69" target="3" edge="1">
                    <mxGeometry relative="1" as="geometry">
                        <mxPoint x="1090" y="60" as="sourcePoint"/>
                        <mxPoint x="1020" y="20" as="targetPoint"/>
                    </mxGeometry>
                </mxCell>
                <mxCell id="68" value="N" style="resizable=0;html=1;align=right;verticalAlign=bottom;" parent="67" connectable="0" vertex="1">
                    <mxGeometry x="1" relative="1" as="geometry"/>
                </mxCell>
                <mxCell id="69" value="in round" style="shape=rhombus;perimeter=rhombusPerimeter;whiteSpace=wrap;html=1;align=center;" parent="1" vertex="1">
                    <mxGeometry x="440" y="110" width="120" height="60" as="geometry"/>
                </mxCell>
                <mxCell id="70" value="" style="endArrow=none;html=1;rounded=0;dashed=1;dashPattern=1 2;exitX=0.5;exitY=1;exitDx=0;exitDy=0;entryX=0.5;entryY=0;entryDx=0;entryDy=0;" parent="1" source="69" target="65" edge="1">
                    <mxGeometry relative="1" as="geometry">
                        <mxPoint x="1191.25" y="125" as="sourcePoint"/>
                        <mxPoint x="1213.75" y="210" as="targetPoint"/>
                    </mxGeometry>
                </mxCell>
                <mxCell id="71" value="1" style="resizable=0;html=1;align=right;verticalAlign=bottom;" parent="70" connectable="0" vertex="1">
                    <mxGeometry x="1" relative="1" as="geometry"/>
                </mxCell>
                <mxCell id="73" value="planned round" style="shape=rhombus;perimeter=rhombusPerimeter;whiteSpace=wrap;html=1;align=center;" parent="1" vertex="1">
                    <mxGeometry x="450" y="345" width="120" height="60" as="geometry"/>
                </mxCell>
                <mxCell id="79" value="" style="endArrow=none;html=1;rounded=0;dashed=1;dashPattern=1 2;entryX=1;entryY=0.75;entryDx=0;entryDy=0;exitX=0;exitY=0.5;exitDx=0;exitDy=0;" parent="1" source="73" target="24" edge="1">
                    <mxGeometry relative="1" as="geometry">
                        <mxPoint x="690" y="290" as="sourcePoint"/>
                        <mxPoint x="850" y="290" as="targetPoint"/>
                    </mxGeometry>
                </mxCell>
                <mxCell id="80" value="1" style="resizable=0;html=1;align=right;verticalAlign=bottom;" parent="79" connectable="0" vertex="1">
                    <mxGeometry x="1" relative="1" as="geometry"/>
                </mxCell>
                <mxCell id="81" value="" style="endArrow=none;html=1;rounded=0;dashed=1;dashPattern=1 2;entryX=0;entryY=0.75;entryDx=0;entryDy=0;exitX=1;exitY=0.5;exitDx=0;exitDy=0;" parent="1" source="73" target="66" edge="1">
                    <mxGeometry relative="1" as="geometry">
                        <mxPoint x="740" y="290" as="sourcePoint"/>
                        <mxPoint x="900" y="290" as="targetPoint"/>
                    </mxGeometry>
                </mxCell>
                <mxCell id="82" value="N" style="resizable=0;html=1;align=right;verticalAlign=bottom;" parent="81" connectable="0" vertex="1">
                    <mxGeometry x="1" relative="1" as="geometry"/>
                </mxCell>
                <mxCell id="99" value="Team" style="swimlane;childLayout=stackLayout;horizontal=1;startSize=30;horizontalStack=0;rounded=1;fontSize=14;fontStyle=0;strokeWidth=2;resizeParent=0;resizeLast=1;shadow=0;dashed=0;align=center;" parent="1" vertex="1">
                    <mxGeometry x="610" y="-575" width="160" height="130" as="geometry"/>
                </mxCell>
                <mxCell id="100" value="+id&#10;+name&#10;+short_code&#10;+type&#10;+image_path&#10;+founded" style="align=left;strokeColor=none;fillColor=none;spacingLeft=4;fontSize=12;verticalAlign=top;resizable=0;rotatable=0;part=1;" parent="99" vertex="1">
                    <mxGeometry y="30" width="160" height="100" as="geometry"/>
                </mxCell>
                <mxCell id="101" value="Player" style="swimlane;childLayout=stackLayout;horizontal=1;startSize=30;horizontalStack=0;rounded=1;fontSize=14;fontStyle=0;strokeWidth=2;resizeParent=0;resizeLast=1;shadow=0;dashed=0;align=center;" parent="1" vertex="1">
                    <mxGeometry x="1090" y="-560" width="160" height="180" as="geometry"/>
                </mxCell>
                <mxCell id="102" value="+id&#10;+role&#10;+position&#10;+firstname&#10;+lastname&#10;+height&#10;+weight&#10;+date_of_birth&#10;+gender&#10;+image_path" style="align=left;strokeColor=none;fillColor=none;spacingLeft=4;fontSize=12;verticalAlign=top;resizable=0;rotatable=0;part=1;" parent="101" vertex="1">
                    <mxGeometry y="30" width="160" height="150" as="geometry"/>
                </mxCell>
                <mxCell id="105" value="Coachs" style="swimlane;childLayout=stackLayout;horizontal=1;startSize=30;horizontalStack=0;rounded=1;fontSize=14;fontStyle=0;strokeWidth=2;resizeParent=0;resizeLast=1;shadow=0;dashed=0;align=center;" parent="1" vertex="1">
                    <mxGeometry x="90" y="-560" width="160" height="150" as="geometry"/>
                </mxCell>
                <mxCell id="106" value="+id&#10;+firstname&#10;+lastname&#10;+image_path&#10;+height&#10;+weight&#10;+date_of_birth&#10;+gender" style="align=left;strokeColor=none;fillColor=none;spacingLeft=4;fontSize=12;verticalAlign=top;resizable=0;rotatable=0;part=1;" parent="105" vertex="1">
                    <mxGeometry y="30" width="160" height="120" as="geometry"/>
                </mxCell>
                <mxCell id="109" value="Referee" style="swimlane;childLayout=stackLayout;horizontal=1;startSize=30;horizontalStack=0;rounded=1;fontSize=14;fontStyle=0;strokeWidth=2;resizeParent=0;resizeLast=1;shadow=0;dashed=0;align=center;" parent="1" vertex="1">
                    <mxGeometry x="710" y="-120" width="160" height="150" as="geometry"/>
                </mxCell>
                <mxCell id="110" value="+id&#10;+firstname&#10;+lastname&#10;+image_path&#10;+height&#10;+weight&#10;+date_of_birth&#10;+gender" style="align=left;strokeColor=none;fillColor=none;spacingLeft=4;fontSize=12;verticalAlign=top;resizable=0;rotatable=0;part=1;" parent="109" vertex="1">
                    <mxGeometry y="30" width="160" height="120" as="geometry"/>
                </mxCell>
                <mxCell id="111" value="&lt;b&gt;playing in&lt;br&gt;&lt;/b&gt;starting_at&lt;br&gt;ending_at" style="shape=rhombus;perimeter=rhombusPerimeter;whiteSpace=wrap;html=1;align=center;" parent="1" vertex="1">
                    <mxGeometry x="840" y="-530" width="140" height="80" as="geometry"/>
                </mxCell>
                <mxCell id="112" value="coached" style="shape=rhombus;perimeter=rhombusPerimeter;whiteSpace=wrap;html=1;align=center;" parent="1" vertex="1">
                    <mxGeometry x="365" y="-530" width="120" height="60" as="geometry"/>
                </mxCell>
                <mxCell id="113" value="arbitrate" style="shape=rhombus;perimeter=rhombusPerimeter;whiteSpace=wrap;html=1;align=center;" parent="1" vertex="1">
                    <mxGeometry x="425" y="-60" width="120" height="60" as="geometry"/>
                </mxCell>
                <mxCell id="114" value="" style="endArrow=none;html=1;rounded=0;entryX=0;entryY=0.5;entryDx=0;entryDy=0;exitX=1;exitY=0.5;exitDx=0;exitDy=0;" parent="1" source="112" target="100" edge="1">
                    <mxGeometry relative="1" as="geometry">
                        <mxPoint x="380" y="-780" as="sourcePoint"/>
                        <mxPoint x="540" y="-780" as="targetPoint"/>
                    </mxGeometry>
                </mxCell>
                <mxCell id="115" value="1" style="resizable=0;html=1;align=right;verticalAlign=bottom;" parent="114" connectable="0" vertex="1">
                    <mxGeometry x="1" relative="1" as="geometry">
                        <mxPoint x="-80" y="-15" as="offset"/>
                    </mxGeometry>
                </mxCell>
                <mxCell id="120" value="" style="endArrow=none;html=1;rounded=0;entryX=1;entryY=0.25;entryDx=0;entryDy=0;exitX=0;exitY=0.5;exitDx=0;exitDy=0;" parent="1" source="112" target="106" edge="1">
                    <mxGeometry relative="1" as="geometry">
                        <mxPoint x="380" y="-610" as="sourcePoint"/>
                        <mxPoint x="540" y="-610" as="targetPoint"/>
                    </mxGeometry>
                </mxCell>
                <mxCell id="121" value="N" style="resizable=0;html=1;align=right;verticalAlign=bottom;" parent="120" connectable="0" vertex="1">
                    <mxGeometry x="1" relative="1" as="geometry">
                        <mxPoint x="40" as="offset"/>
                    </mxGeometry>
                </mxCell>
                <mxCell id="122" value="" style="endArrow=none;html=1;rounded=0;entryX=0;entryY=0.25;entryDx=0;entryDy=0;exitX=1;exitY=0.5;exitDx=0;exitDy=0;" parent="1" source="111" target="102" edge="1">
                    <mxGeometry relative="1" as="geometry">
                        <mxPoint x="120" y="-635" as="sourcePoint"/>
                        <mxPoint x="80" y="-640" as="targetPoint"/>
                    </mxGeometry>
                </mxCell>
                <mxCell id="123" value="N" style="resizable=0;html=1;align=right;verticalAlign=bottom;" parent="122" connectable="0" vertex="1">
                    <mxGeometry x="1" relative="1" as="geometry"/>
                </mxCell>
                <mxCell id="124" value="" style="endArrow=none;html=1;rounded=0;exitX=0;exitY=0.5;exitDx=0;exitDy=0;entryX=1;entryY=0.5;entryDx=0;entryDy=0;" parent="1" source="111" target="100" edge="1">
                    <mxGeometry relative="1" as="geometry">
                        <mxPoint x="240" y="-635" as="sourcePoint"/>
                        <mxPoint x="470" y="-520" as="targetPoint"/>
                    </mxGeometry>
                </mxCell>
                <mxCell id="125" value="M" style="resizable=0;html=1;align=right;verticalAlign=bottom;" parent="124" connectable="0" vertex="1">
                    <mxGeometry x="1" relative="1" as="geometry">
                        <mxPoint x="40" y="-5" as="offset"/>
                    </mxGeometry>
                </mxCell>
                <mxCell id="133" value="" style="endArrow=none;html=1;rounded=0;exitX=1.004;exitY=0.621;exitDx=0;exitDy=0;exitPerimeter=0;entryX=0;entryY=0.5;entryDx=0;entryDy=0;" parent="1" source="3" target="113" edge="1">
                    <mxGeometry relative="1" as="geometry">
                        <mxPoint x="1070" y="-80" as="sourcePoint"/>
                        <mxPoint x="1230" y="-80" as="targetPoint"/>
                    </mxGeometry>
                </mxCell>
                <mxCell id="134" value="M" style="resizable=0;html=1;align=left;verticalAlign=bottom;" parent="133" connectable="0" vertex="1">
                    <mxGeometry x="-1" relative="1" as="geometry"/>
                </mxCell>
                <mxCell id="138" value="" style="endArrow=none;html=1;rounded=0;entryX=0;entryY=0.5;entryDx=0;entryDy=0;exitX=1;exitY=0.5;exitDx=0;exitDy=0;" parent="1" source="113" target="110" edge="1">
                    <mxGeometry relative="1" as="geometry">
                        <mxPoint x="900" y="-150" as="sourcePoint"/>
                        <mxPoint x="1060" y="-150" as="targetPoint"/>
                    </mxGeometry>
                </mxCell>
                <mxCell id="140" value="N" style="resizable=0;html=1;align=right;verticalAlign=bottom;" parent="138" connectable="0" vertex="1">
                    <mxGeometry x="1" relative="1" as="geometry"/>
                </mxCell>
                <mxCell id="142" value="N" style="edgeStyle=none;html=1;shape=link;" edge="1" parent="1" source="141" target="100">
                    <mxGeometry relative="1" as="geometry"/>
                </mxCell>
                <mxCell id="141" value="Play for" style="rhombus;whiteSpace=wrap;html=1;" vertex="1" parent="1">
                    <mxGeometry x="330" y="-420" width="80" height="50" as="geometry"/>
                </mxCell>
                <mxCell id="150" value="N&lt;br&gt;" style="text;html=1;align=center;verticalAlign=middle;resizable=0;points=[];autosize=1;strokeColor=none;fillColor=none;" vertex="1" parent="1">
                    <mxGeometry x="265" y="-380" width="30" height="30" as="geometry"/>
                </mxCell>
            </root>
        </mxGraphModel>
    </diagram>
</mxfile>